<svg width="128" height="128" viewBox="0 0 128 128" fill="none" xmlns="http://www.w3.org/2000/svg">
<g filter="url(#filter0_i_2272_808)">
<g clip-path="url(#clip0_2272_808)">
<rect width="128" height="128" rx="27.0399" fill="url(#paint0_linear_2272_808)"/>
<g filter="url(#filter1_f_2272_808)">
<path d="M117.516 122.517C117.516 139.222 93.5566 152.764 64.0015 152.764C34.4464 152.764 10.4873 139.222 10.4873 122.517C10.4873 105.812 34.4464 92.2695 64.0015 92.2695C93.5566 92.2695 117.516 105.812 117.516 122.517Z" fill="#0984FF"/>
</g>
<g filter="url(#filter2_f_2272_808)">
<path d="M0 96.4766H31.9798V127.869H7.72439C3.45833 127.869 0 124.411 0 120.144V96.4766Z" fill="#FF7262"/>
<path d="M31.9795 96.4766H64.0347V127.869H31.9795V96.4766Z" fill="#A259FF"/>
<path d="M63.9629 96.4766H96.0181V127.869H63.9629V96.4766Z" fill="#00B5FF"/>
<path d="M95.9453 96.4766H128V119.964C128 124.33 124.461 127.869 120.096 127.869H95.9453V96.4766Z" fill="#00D885"/>
</g>
<g style="mix-blend-mode:overlay">
<line x1="17.2428" y1="0.714844" x2="17.2428" y2="651.51" stroke="white" stroke-opacity="0.3" stroke-width="0.542329"/>
<line x1="36.2233" y1="0.714844" x2="36.2233" y2="651.51" stroke="white" stroke-opacity="0.3" stroke-width="0.542329"/>
<line x1="54.6618" y1="0.714844" x2="54.6618" y2="651.51" stroke="white" stroke-opacity="0.3" stroke-width="0.542329"/>
<line x1="73.6462" y1="0.714844" x2="73.6461" y2="651.51" stroke="white" stroke-opacity="0.3" stroke-width="0.542329"/>
<line x1="92.0846" y1="0.714844" x2="92.0846" y2="651.51" stroke="white" stroke-opacity="0.3" stroke-width="0.542329"/>
<line x1="111.065" y1="0.714844" x2="111.065" y2="651.51" stroke="white" stroke-opacity="0.3" stroke-width="0.542329"/>
<line x1="529.472" y1="19.4352" x2="-338.255" y2="19.4352" stroke="white" stroke-opacity="0.3" stroke-width="0.542329"/>
<line x1="529.472" y1="38.4079" x2="-338.255" y2="38.4078" stroke="white" stroke-opacity="0.3" stroke-width="0.542329"/>
<line x1="529.472" y1="56.8493" x2="-338.255" y2="56.8492" stroke="white" stroke-opacity="0.3" stroke-width="0.542329"/>
<line x1="529.472" y1="75.8259" x2="-338.255" y2="75.8258" stroke="white" stroke-opacity="0.3" stroke-width="0.542329"/>
<line x1="529.472" y1="94.2712" x2="-338.255" y2="94.2711" stroke="white" stroke-opacity="0.3" stroke-width="0.542329"/>
<line x1="529.472" y1="113.259" x2="-338.255" y2="113.259" stroke="white" stroke-opacity="0.3" stroke-width="0.542329"/>
</g>
<g filter="url(#filter3_f_2272_808)">
<rect y="88.4961" width="128" height="39.3645" fill="black" fill-opacity="0.5"/>
</g>
<mask id="path-21-inside-1_2272_808" fill="white">
<path d="M0 96.4766H31.9798V127.869H7.72439C3.45833 127.869 0 124.411 0 120.144V96.4766Z"/>
</mask>
<path d="M0 96.4766H31.9798V127.869H7.72439C3.45833 127.869 0 124.411 0 120.144V96.4766Z" fill="url(#paint1_linear_2272_808)"/>
<path d="M0 95.395H31.9798V97.5582H0V95.395ZM0 97.5582M31.9798 127.869H0H31.9798M31.9798 127.869M0 127.869V96.4766V127.869M0 127.869M31.9798 96.4766V127.869V96.4766" fill="white" fill-opacity="0.2" mask="url(#path-21-inside-1_2272_808)"/>
<mask id="path-23-inside-2_2272_808" fill="white">
<path d="M31.9795 96.4766H64.0347V127.869H31.9795V96.4766Z"/>
</mask>
<path d="M31.9795 96.4766H64.0347V127.869H31.9795V96.4766Z" fill="url(#paint2_linear_2272_808)"/>
<path d="M31.9795 96.4766V97.5582H64.0347V96.4766V95.395H31.9795V96.4766Z" fill="white" fill-opacity="0.2" mask="url(#path-23-inside-2_2272_808)"/>
<mask id="path-25-inside-3_2272_808" fill="white">
<path d="M63.9629 96.4766H96.0181V127.869H63.9629V96.4766Z"/>
</mask>
<path d="M63.9629 96.4766H96.0181V127.869H63.9629V96.4766Z" fill="url(#paint3_linear_2272_808)"/>
<path d="M63.9629 96.4766V97.5582H96.0181V96.4766V95.395H63.9629V96.4766Z" fill="white" fill-opacity="0.2" mask="url(#path-25-inside-3_2272_808)"/>
<mask id="path-27-inside-4_2272_808" fill="white">
<path d="M95.9453 96.4766H128V119.964C128 124.33 124.461 127.869 120.096 127.869H95.9453V96.4766Z"/>
</mask>
<path d="M95.9453 96.4766H128V119.964C128 124.33 124.461 127.869 120.096 127.869H95.9453V96.4766Z" fill="url(#paint4_linear_2272_808)"/>
<path d="M95.9453 95.395H128V97.5582H95.9453V95.395ZM95.9453 97.5582M128 127.869H95.9453H128M128 127.869M95.9453 127.869V96.4766V127.869M95.9453 127.869M128 96.4766V127.869V96.4766" fill="white" fill-opacity="0.2" mask="url(#path-27-inside-4_2272_808)"/>
</g>
<rect x="0.721063" y="0.721063" width="126.558" height="126.558" rx="26.3188" stroke="white" stroke-opacity="0.3" stroke-width="1.44213"/>
</g>
<foreignObject x="22.0091" y="13.9349" width="90.766" height="98.4935"><div xmlns="http://www.w3.org/1999/xhtml" style="backdrop-filter:blur(6.35px);clip-path:url(#bgblur_1_2272_808_clip_path);height:100%;width:100%"></div></foreignObject><path data-figma-bg-blur-radius="12.7057" d="M64.8259 76.8939L50.006 99.7231L34.7148 26.6406L100.069 64.0961L69.1987 73.5923C67.4271 74.1373 65.8996 75.2782 64.8744 76.8202L64.8259 76.8939Z" fill="url(#paint5_linear_2272_808)"/>
<foreignObject x="15.2943" y="5.65753" width="107.254" height="116.783"><div xmlns="http://www.w3.org/1999/xhtml" style="backdrop-filter:blur(6.35px);clip-path:url(#bgblur_2_2272_808_clip_path);height:100%;width:100%"></div></foreignObject><path data-figma-bg-blur-radius="12.7057" d="M31.8525 18.7106C29.9278 17.6075 27.6033 19.2964 28.0576 21.4678L46.0977 107.69C46.564 109.918 49.4753 110.479 50.7412 108.608L50.7444 108.603L50.7707 108.563L69.4016 79.8635C69.7299 79.3577 70.2257 78.9833 70.8021 78.806L108.028 67.355C110.178 66.6937 110.502 63.7854 108.55 62.667L31.8525 18.7106ZM64.825 76.8926L50.0051 99.7218L34.714 26.6393L100.068 64.0947L69.1978 73.5909C67.4263 74.1359 65.8987 75.2769 64.8735 76.8188L64.825 76.8926Z" fill="url(#paint6_linear_2272_808)"/>
<defs>
<filter id="filter0_i_2272_808" x="0" y="0" width="128" height="132.183" filterUnits="userSpaceOnUse" color-interpolation-filters="sRGB">
<feFlood flood-opacity="0" result="BackgroundImageFix"/>
<feBlend mode="normal" in="SourceGraphic" in2="BackgroundImageFix" result="shape"/>
<feColorMatrix in="SourceAlpha" type="matrix" values="0 0 0 0 0 0 0 0 0 0 0 0 0 0 0 0 0 0 127 0" result="hardAlpha"/>
<feOffset dy="4.18301"/>
<feGaussianBlur stdDeviation="2.0915"/>
<feComposite in2="hardAlpha" operator="arithmetic" k2="-1" k3="1"/>
<feColorMatrix type="matrix" values="0 0 0 0 0.816667 0 0 0 0 0.956 0 0 0 0 1 0 0 0 1 0"/>
<feBlend mode="multiply" in2="shape" result="effect1_innerShadow_2272_808"/>
</filter>
<filter id="filter1_f_2272_808" x="-42.8852" y="38.8971" width="213.773" height="167.241" filterUnits="userSpaceOnUse" color-interpolation-filters="sRGB">
<feFlood flood-opacity="0" result="BackgroundImageFix"/>
<feBlend mode="normal" in="SourceGraphic" in2="BackgroundImageFix" result="shape"/>
<feGaussianBlur stdDeviation="26.6862" result="effect1_foregroundBlur_2272_808"/>
</filter>
<filter id="filter2_f_2272_808" x="-43.6243" y="52.8522" width="215.249" height="118.639" filterUnits="userSpaceOnUse" color-interpolation-filters="sRGB">
<feFlood flood-opacity="0" result="BackgroundImageFix"/>
<feBlend mode="normal" in="SourceGraphic" in2="BackgroundImageFix" result="shape"/>
<feGaussianBlur stdDeviation="21.8122" result="effect1_foregroundBlur_2272_808"/>
</filter>
<filter id="filter3_f_2272_808" x="-18.5043" y="69.9918" width="165.009" height="76.3719" filterUnits="userSpaceOnUse" color-interpolation-filters="sRGB">
<feFlood flood-opacity="0" result="BackgroundImageFix"/>
<feBlend mode="normal" in="SourceGraphic" in2="BackgroundImageFix" result="shape"/>
<feGaussianBlur stdDeviation="9.25214" result="effect1_foregroundBlur_2272_808"/>
</filter>
<clipPath id="bgblur_1_2272_808_clip_path" transform="translate(-22.0091 -13.9349)"><path d="M64.8259 76.8939L50.006 99.7231L34.7148 26.6406L100.069 64.0961L69.1987 73.5923C67.4271 74.1373 65.8996 75.2782 64.8744 76.8202L64.8259 76.8939Z"/>
</clipPath><clipPath id="bgblur_2_2272_808_clip_path" transform="translate(-15.2943 -5.65753)"><path d="M31.8525 18.7106C29.9278 17.6075 27.6033 19.2964 28.0576 21.4678L46.0977 107.69C46.564 109.918 49.4753 110.479 50.7412 108.608L50.7444 108.603L50.7707 108.563L69.4016 79.8635C69.7299 79.3577 70.2257 78.9833 70.8021 78.806L108.028 67.355C110.178 66.6937 110.502 63.7854 108.55 62.667L31.8525 18.7106ZM64.825 76.8926L50.0051 99.7218L34.714 26.6393L100.068 64.0947L69.1978 73.5909C67.4263 74.1359 65.8987 75.2769 64.8735 76.8188L64.825 76.8926Z"/>
</clipPath><linearGradient id="paint0_linear_2272_808" x1="64" y1="0" x2="64" y2="128" gradientUnits="userSpaceOnUse">
<stop stop-color="#617489"/>
<stop offset="0.0989583" stop-color="#3E5670"/>
<stop offset="1" stop-color="#0F1011"/>
</linearGradient>
<linearGradient id="paint1_linear_2272_808" x1="15.9899" y1="96.4766" x2="15.9899" y2="127.869" gradientUnits="userSpaceOnUse">
<stop stop-color="#FF7262"/>
<stop offset="1" stop-color="#FF1A00"/>
</linearGradient>
<linearGradient id="paint2_linear_2272_808" x1="48.0071" y1="96.4766" x2="48.0071" y2="127.869" gradientUnits="userSpaceOnUse">
<stop stop-color="#A259FF"/>
<stop offset="1" stop-color="#7000FF"/>
</linearGradient>
<linearGradient id="paint3_linear_2272_808" x1="79.9905" y1="96.4766" x2="79.9905" y2="127.869" gradientUnits="userSpaceOnUse">
<stop stop-color="#00C4FF"/>
<stop offset="1" stop-color="#0096D2"/>
</linearGradient>
<linearGradient id="paint4_linear_2272_808" x1="111.973" y1="96.4766" x2="111.973" y2="127.869" gradientUnits="userSpaceOnUse">
<stop stop-color="#00FF9D"/>
<stop offset="1" stop-color="#1E9F61"/>
</linearGradient>
<linearGradient id="paint5_linear_2272_808" x1="67.392" y1="26.6406" x2="67.392" y2="99.7231" gradientUnits="userSpaceOnUse">
<stop/>
<stop offset="1" stop-color="#2B2B2B"/>
</linearGradient>
<linearGradient id="paint6_linear_2272_808" x1="33.7772" y1="25.5495" x2="110.256" y2="98.7947" gradientUnits="userSpaceOnUse">
<stop stop-color="white"/>
<stop offset="1" stop-color="white" stop-opacity="0"/>
</linearGradient>
<clipPath id="clip0_2272_808">
<rect width="128" height="128" rx="27.0399" fill="white"/>
</clipPath>
</defs>
</svg>
