<svg width="150" height="30" viewBox="0 0 150 30" fill="none" xmlns="http://www.w3.org/2000/svg">
<g filter="url(#filter0_i_2011_6499)">
<g clip-path="url(#clip0_2011_6499)">
<rect width="29.8195" height="29.8195" rx="6.29933" fill="url(#paint0_linear_2011_6499)"/>
<g filter="url(#filter1_f_2011_6499)">
<path d="M27.3767 28.5426C27.3767 32.4343 21.7951 35.5891 14.9098 35.5891C8.0245 35.5891 2.44287 32.4343 2.44287 28.5426C2.44287 24.6509 8.0245 21.4961 14.9098 21.4961C21.7951 21.4961 27.3767 24.6509 27.3767 28.5426Z" fill="#0984FF"/>
</g>
<g filter="url(#filter2_f_2011_6499)">
<path d="M0 22.4766H7.45017V29.7899H1.79951C0.805668 29.7899 0 28.9842 0 27.9903V22.4766Z" fill="#FF7262"/>
<path d="M7.4502 22.4766H14.9179V29.7899H7.4502V22.4766Z" fill="#A259FF"/>
<path d="M14.9009 22.4766H22.3686V29.7899H14.9009V22.4766Z" fill="#00B5FF"/>
<path d="M22.3517 22.4766H29.8194V27.9484C29.8194 28.9654 28.9949 29.7899 27.9779 29.7899H22.3517V22.4766Z" fill="#00D885"/>
</g>
<g style="mix-blend-mode:overlay">
<line x1="4.01654" y1="0.167969" x2="4.01653" y2="151.78" stroke="white" stroke-opacity="0.3" stroke-width="0.126343"/>
<line x1="8.43866" y1="0.167969" x2="8.43865" y2="151.78" stroke="white" stroke-opacity="0.3" stroke-width="0.126343"/>
<line x1="12.7343" y1="0.167969" x2="12.7343" y2="151.78" stroke="white" stroke-opacity="0.3" stroke-width="0.126343"/>
<line x1="17.1562" y1="0.167969" x2="17.1562" y2="151.78" stroke="white" stroke-opacity="0.3" stroke-width="0.126343"/>
<line x1="21.4518" y1="0.167969" x2="21.4518" y2="151.78" stroke="white" stroke-opacity="0.3" stroke-width="0.126343"/>
<line x1="25.874" y1="0.167969" x2="25.874" y2="151.78" stroke="white" stroke-opacity="0.3" stroke-width="0.126343"/>
<line x1="123.348" y1="4.52802" x2="-78.8017" y2="4.528" stroke="white" stroke-opacity="0.3" stroke-width="0.126343"/>
<line x1="123.348" y1="8.94989" x2="-78.8017" y2="8.94988" stroke="white" stroke-opacity="0.3" stroke-width="0.126343"/>
<line x1="123.348" y1="13.2468" x2="-78.8017" y2="13.2468" stroke="white" stroke-opacity="0.3" stroke-width="0.126343"/>
<line x1="123.348" y1="17.6686" x2="-78.8017" y2="17.6686" stroke="white" stroke-opacity="0.3" stroke-width="0.126343"/>
<line x1="123.348" y1="21.9655" x2="-78.8017" y2="21.9655" stroke="white" stroke-opacity="0.3" stroke-width="0.126343"/>
<line x1="123.348" y1="26.3874" x2="-78.8017" y2="26.3874" stroke="white" stroke-opacity="0.3" stroke-width="0.126343"/>
</g>
<foreignObject x="2.85935" y="2.11423" width="24.1008" height="25.5958"><div xmlns="http://www.w3.org/1999/xhtml" style="backdrop-filter:blur(1.48px);clip-path:url(#bgblur_1_2011_6499_clip_path);height:100%;width:100%"></div></foreignObject><path data-figma-bg-blur-radius="2.95999" d="M11.9131 5.90332C13.834 5.1049 15.96 4.94222 17.9805 5.4375C19.7983 5.88317 21.446 6.84113 22.7295 8.19141C22.9336 8.4066 22.9049 8.75051 22.6719 8.94531L20.0166 11.1641C19.7861 11.3566 19.4375 11.3269 19.209 11.1133C18.5606 10.5073 17.7653 10.0744 16.8965 9.86133C15.8195 9.59728 14.6861 9.68482 13.6621 10.1104C12.6381 10.536 11.7767 11.2778 11.2041 12.2275C10.6315 13.1773 10.3769 14.2853 10.4785 15.3896C10.5802 16.4939 11.0322 17.537 11.7686 18.3662C12.5049 19.1955 13.4877 19.7675 14.5723 19.999C15.6567 20.2305 16.7872 20.1096 17.7979 19.6533C18.6132 19.2853 19.3159 18.7141 19.8428 18C20.0284 17.7483 20.3662 17.6555 20.6279 17.8027L23.6436 19.499C23.9084 19.6481 23.9987 19.9816 23.8369 20.2305C22.8215 21.7922 21.3776 23.0347 19.6719 23.8047C17.7758 24.6606 15.6556 24.8884 13.6211 24.4541C11.5865 24.0198 9.74365 22.9462 8.3623 21.3906C6.98104 19.835 6.13308 17.8782 5.94238 15.8066C5.75177 13.7351 6.22866 11.6565 7.30273 9.875C8.37686 8.09355 9.99218 6.70174 11.9131 5.90332Z" fill="url(#paint1_linear_2011_6499)" stroke="url(#paint2_linear_2011_6499)" stroke-width="0.164444"/>
<g filter="url(#filter4_f_2011_6499)">
<rect y="20.625" width="29.8194" height="9.17053" fill="black" fill-opacity="0.5"/>
</g>
<mask id="path-22-inside-1_2011_6499" fill="white">
<path d="M0 22.4766H7.45017V29.7899H1.79951C0.805668 29.7899 0 28.9842 0 27.9903V22.4766Z"/>
</mask>
<path d="M0 22.4766H7.45017V29.7899H1.79951C0.805668 29.7899 0 28.9842 0 27.9903V22.4766Z" fill="url(#paint3_linear_2011_6499)"/>
<path d="M0 22.2246H7.45017V22.7285H0V22.2246ZM0 22.7285M7.45017 29.7899H0H7.45017M7.45017 29.7899M0 29.7899V22.4766V29.7899M0 29.7899M7.45017 22.4766V29.7899V22.4766" fill="white" fill-opacity="0.2" mask="url(#path-22-inside-1_2011_6499)"/>
<mask id="path-24-inside-2_2011_6499" fill="white">
<path d="M7.4502 22.4766H14.9179V29.7899H7.4502V22.4766Z"/>
</mask>
<path d="M7.4502 22.4766H14.9179V29.7899H7.4502V22.4766Z" fill="url(#paint4_linear_2011_6499)"/>
<path d="M7.4502 22.4766V22.7285H14.9179V22.4766V22.2246H7.4502V22.4766Z" fill="white" fill-opacity="0.2" mask="url(#path-24-inside-2_2011_6499)"/>
<mask id="path-26-inside-3_2011_6499" fill="white">
<path d="M14.9009 22.4766H22.3686V29.7899H14.9009V22.4766Z"/>
</mask>
<path d="M14.9009 22.4766H22.3686V29.7899H14.9009V22.4766Z" fill="url(#paint5_linear_2011_6499)"/>
<path d="M14.9009 22.4766V22.7285H22.3686V22.4766V22.2246H14.9009V22.4766Z" fill="white" fill-opacity="0.2" mask="url(#path-26-inside-3_2011_6499)"/>
<mask id="path-28-inside-4_2011_6499" fill="white">
<path d="M22.3517 22.4766H29.8194V27.9484C29.8194 28.9654 28.9949 29.7899 27.9779 29.7899H22.3517V22.4766Z"/>
</mask>
<path d="M22.3517 22.4766H29.8194V27.9484C29.8194 28.9654 28.9949 29.7899 27.9779 29.7899H22.3517V22.4766Z" fill="url(#paint6_linear_2011_6499)"/>
<path d="M22.3517 22.2246H29.8194V22.7285H22.3517V22.2246ZM22.3517 22.7285M29.8194 29.7899H22.3517H29.8194M29.8194 29.7899M22.3517 29.7899V22.4766V29.7899M22.3517 29.7899M29.8194 22.4766V29.7899V22.4766" fill="white" fill-opacity="0.2" mask="url(#path-28-inside-4_2011_6499)"/>
</g>
<rect x="0.167982" y="0.167982" width="29.4835" height="29.4835" rx="6.13135" stroke="white" stroke-opacity="0.3" stroke-width="0.335964"/>
</g>
<path d="M43.2784 21.1415C41.9032 21.1415 40.708 20.8459 39.6927 20.2547C38.6902 19.6507 37.9063 18.8089 37.3408 17.7293C36.7882 16.6369 36.5118 15.3517 36.5118 13.8738C36.5118 12.4086 36.7946 11.1299 37.3601 10.0375C37.9384 8.94506 38.7481 8.09684 39.7891 7.4928C40.8301 6.88876 42.0317 6.58674 43.394 6.58674C44.5121 6.58674 45.5146 6.79237 46.4014 7.20363C47.2881 7.61489 48.0207 8.19323 48.599 8.93864C49.1774 9.67119 49.5436 10.5451 49.6979 11.5604H47.0954C46.8512 10.7379 46.3949 10.1017 45.7266 9.65191C45.0712 9.18925 44.2679 8.95791 43.3169 8.95791C42.4687 8.95791 41.7233 9.15712 41.0807 9.55553C40.4509 9.95393 39.9626 10.5194 39.6156 11.252C39.2686 11.9845 39.0951 12.8585 39.0951 13.8738C39.0951 14.8505 39.2686 15.7116 39.6156 16.457C39.9626 17.1895 40.4509 17.7614 41.0807 18.1727C41.7233 18.5711 42.4687 18.7703 43.3169 18.7703C44.2808 18.7703 45.1033 18.539 45.7845 18.0763C46.4785 17.6137 46.9411 16.9903 47.1725 16.2064H49.7364C49.5565 17.1831 49.1645 18.0442 48.5605 18.7896C47.9693 19.535 47.2175 20.1133 46.305 20.5246C45.4053 20.9359 44.3965 21.1415 43.2784 21.1415ZM51.0432 16.1293C51.0432 15.1397 51.2617 14.2722 51.6987 13.5268C52.1357 12.7685 52.7397 12.1773 53.5108 11.7532C54.2819 11.3291 55.1558 11.117 56.1326 11.117C57.1222 11.117 57.9961 11.3291 58.7544 11.7532C59.5255 12.1773 60.1295 12.7685 60.5665 13.5268C61.0034 14.2722 61.2219 15.1397 61.2219 16.1293C61.2219 17.1189 61.0034 17.9928 60.5665 18.751C60.1295 19.4965 59.5255 20.0812 58.7544 20.5053C57.9961 20.9294 57.1222 21.1415 56.1326 21.1415C55.1558 21.1415 54.2819 20.9294 53.5108 20.5053C52.7397 20.0812 52.1357 19.4965 51.6987 18.751C51.2617 17.9928 51.0432 17.1189 51.0432 16.1293ZM53.3951 16.1293C53.3951 16.7076 53.5108 17.2152 53.7421 17.6522C53.9863 18.0892 54.3076 18.4297 54.706 18.6739C55.1173 18.9181 55.5928 19.0402 56.1326 19.0402C56.6724 19.0402 57.1479 18.9181 57.5591 18.6739C57.9704 18.4297 58.2917 18.0892 58.523 17.6522C58.7544 17.2152 58.87 16.7076 58.87 16.1293C58.87 15.5381 58.7544 15.0304 58.523 14.6063C58.2917 14.1693 57.9704 13.8288 57.5591 13.5846C57.1479 13.3404 56.6724 13.2183 56.1326 13.2183C55.5928 13.2183 55.1173 13.3404 54.706 13.5846C54.3076 13.8288 53.9863 14.1693 53.7421 14.6063C53.5108 15.0304 53.3951 15.5381 53.3951 16.1293ZM63.0862 25.3248V11.3869H65.2645L65.4188 12.8328C65.7015 12.2801 66.1385 11.856 66.7297 11.5604C67.3208 11.252 67.9699 11.0978 68.6767 11.0978C69.5892 11.0978 70.3732 11.3034 71.0286 11.7146C71.6969 12.1259 72.2174 12.6978 72.5901 13.4304C72.9628 14.1629 73.1492 15.0304 73.1492 16.0329C73.1492 17.0225 72.9757 17.9028 72.6287 18.6739C72.2817 19.445 71.774 20.0555 71.1057 20.5053C70.4503 20.9423 69.647 21.1608 68.696 21.1608C67.9891 21.1608 67.3401 21.0258 66.7489 20.7559C66.1706 20.486 65.7336 20.1133 65.438 19.6378V25.3248H63.0862ZM65.4573 16.1485C65.4573 16.714 65.5666 17.2152 65.785 17.6522C66.0035 18.0892 66.312 18.4362 66.7104 18.6932C67.1216 18.9374 67.5972 19.0595 68.1369 19.0595C68.6896 19.0595 69.1651 18.9374 69.5635 18.6932C69.9619 18.4362 70.2639 18.0892 70.4696 17.6522C70.6752 17.2152 70.778 16.714 70.778 16.1485C70.778 15.5831 70.6752 15.0818 70.4696 14.6449C70.2639 14.2079 69.9619 13.8673 69.5635 13.6231C69.1651 13.3661 68.6896 13.2376 68.1369 13.2376C67.5972 13.2376 67.1216 13.3597 66.7104 13.6039C66.312 13.8481 66.0035 14.1886 65.785 14.6256C65.5666 15.0626 65.4573 15.5702 65.4573 16.1485ZM76.0902 11.3869L79.194 20.1776L77.9216 22.5873L73.6034 11.3869H76.0902ZM73.854 25.3248V23.3777H75.2613C75.5697 23.3777 75.8396 23.3392 76.071 23.262C76.3023 23.1978 76.5079 23.0693 76.6879 22.8765C76.8806 22.6837 77.0413 22.401 77.1698 22.0283L81.1218 11.3869H83.5508L78.8855 23.0307C78.5385 23.9046 78.1016 24.5408 77.5746 24.9392C77.0477 25.3376 76.3923 25.5368 75.6083 25.5368C75.2741 25.5368 74.9593 25.5176 74.6637 25.479C74.3809 25.4533 74.1111 25.4019 73.854 25.3248ZM85.3108 21.1608C84.3212 21.1608 83.8264 20.364 83.8264 18.7703C83.8264 17.4337 84.1155 15.7951 84.6939 13.8545H84.077C83.8713 13.8545 83.7685 13.7452 83.7685 13.5268C83.7685 13.3083 83.8713 13.199 84.077 13.199H84.9059C85.073 12.6978 85.2465 12.2287 85.4264 11.7918C85.6063 11.3548 85.7927 10.9564 85.9855 10.5965C86.5638 9.47841 87.1293 8.91936 87.6819 8.91936C88.1189 8.91936 88.3374 9.26636 88.3374 9.96036C88.3374 10.3331 88.2731 10.7315 88.1446 11.1556C88.0546 11.4512 87.9518 11.7725 87.8361 12.1195C87.7205 12.4536 87.5855 12.8135 87.4313 13.199H88.3759C88.5944 13.199 88.7037 13.3083 88.7037 13.5268C88.7037 13.7452 88.5944 13.8545 88.3759 13.8545H87.1229C86.4674 15.3196 85.5999 16.7847 84.5204 18.2498C84.5075 18.3526 84.5011 18.4554 84.5011 18.5583C84.5011 18.6482 84.5011 18.7382 84.5011 18.8282C84.5011 19.972 84.8224 20.5439 85.465 20.5439C85.9662 20.5439 86.4096 20.364 86.7951 20.0041C87.1936 19.6442 87.5534 19.1944 87.8747 18.6547C88.0032 18.4362 88.1125 18.2884 88.2024 18.2113C88.2924 18.1342 88.3631 18.0956 88.4145 18.0956C88.5687 18.0956 88.6458 18.192 88.6458 18.3848C88.6458 18.4105 88.6265 18.4747 88.588 18.5775C88.5623 18.6675 88.5366 18.7253 88.5109 18.751C88.1382 19.4579 87.6819 20.0362 87.1421 20.486C86.6024 20.9359 85.9919 21.1608 85.3108 21.1608ZM85.6192 13.199H86.6795C86.8851 12.7492 87.0522 12.3508 87.1807 12.0038C87.3221 11.6568 87.4313 11.3612 87.5084 11.117C87.6112 10.7315 87.6626 10.4102 87.6626 10.1531C87.6626 9.8704 87.6048 9.72903 87.4891 9.72903C87.2835 9.72903 86.9944 10.076 86.6216 10.77C86.4546 11.0913 86.2875 11.4576 86.1204 11.8689C85.9533 12.2673 85.7863 12.7107 85.6192 13.199ZM84.6746 16.9775C84.9702 16.4891 85.2593 15.9879 85.5421 15.4738C85.8248 14.9469 86.1011 14.4071 86.371 13.8545H85.4071C85.2401 14.3686 85.0923 14.8891 84.9638 15.416C84.8481 15.9301 84.7517 16.4506 84.6746 16.9775ZM90.6078 21.0837C89.7981 21.0837 89.1684 20.7624 88.7186 20.1198C88.3587 19.5671 88.1788 18.8667 88.1788 18.0185C88.1788 17.1446 88.3844 16.2449 88.7957 15.3196C89.2455 14.3171 89.8431 13.6296 90.5885 13.2569C90.8713 13.1155 91.1154 13.0448 91.3211 13.0448C91.5395 13.0448 91.7195 13.1155 91.8608 13.2569C92.1821 13.0384 92.5034 12.9291 92.8247 12.9291C93.4288 12.9291 93.8914 13.244 94.2127 13.8738C94.4698 14.3621 94.5983 14.9212 94.5983 15.5509C94.5983 16.7204 94.2384 17.8964 93.5187 19.0788C92.7091 20.4154 91.7388 21.0837 90.6078 21.0837ZM90.5885 20.4089C91.501 20.4089 92.3107 19.8242 93.0175 18.6547C93.6344 17.6137 93.9428 16.5855 93.9428 15.5702C93.9428 15.1461 93.8529 14.722 93.673 14.2979C93.4673 13.8223 93.1846 13.5846 92.8247 13.5846C92.4263 13.5846 92.0793 13.8095 91.7837 14.2593C91.4881 14.7091 91.3403 15.1525 91.3403 15.5895C91.3403 16.1293 91.5395 16.3991 91.938 16.3991C92.1436 16.3991 92.2464 16.5084 92.2464 16.7269C92.2464 16.9454 92.1436 17.0546 91.938 17.0546C91.1154 17.0546 90.7042 16.5791 90.7042 15.628C90.7042 14.9083 90.9291 14.2657 91.3789 13.7003C91.366 13.6874 91.3468 13.681 91.3211 13.681C91.2568 13.681 91.109 13.7324 90.8777 13.8352C90.2736 14.1693 89.7724 14.7734 89.374 15.6473C89.0142 16.4184 88.8342 17.2024 88.8342 17.9992C88.8342 18.6418 88.9627 19.188 89.2198 19.6378C89.5411 20.1519 89.9973 20.4089 90.5885 20.4089ZM98.8462 6.81808V20.9102H96.3786V6.81808H98.8462ZM105.092 9.09286H96.5714V6.81808H105.092V9.09286ZM104.09 15.1461H96.5329V12.9291H104.09V15.1461ZM106.97 20.9102V11.3869H109.321V20.9102H106.97ZM108.126 9.47841C107.728 9.47841 107.387 9.34347 107.104 9.07358C106.835 8.79084 106.7 8.45026 106.7 8.05186C106.7 7.65345 106.835 7.3193 107.104 7.04941C107.387 6.77952 107.728 6.64458 108.126 6.64458C108.525 6.64458 108.859 6.77952 109.129 7.04941C109.411 7.3193 109.553 7.65345 109.553 8.05186C109.553 8.45026 109.411 8.79084 109.129 9.07358C108.859 9.34347 108.525 9.47841 108.126 9.47841ZM111.212 15.9365C111.212 15.0111 111.398 14.1886 111.771 13.4689C112.156 12.7364 112.69 12.158 113.371 11.7339C114.052 11.3098 114.842 11.0978 115.742 11.0978C116.552 11.0978 117.246 11.2777 117.824 11.6375C118.402 11.9845 118.807 12.4729 119.038 13.1026L118.788 13.3147L118.981 11.3869H121.159V20.4282C121.159 21.4821 120.953 22.3945 120.542 23.1657C120.144 23.9496 119.572 24.5472 118.826 24.9585C118.094 25.3826 117.207 25.5947 116.166 25.5947C114.804 25.5947 113.686 25.2284 112.812 24.4958C111.938 23.7633 111.424 22.7608 111.269 21.4885H113.621C113.698 22.1054 113.955 22.5873 114.392 22.9343C114.842 23.2813 115.433 23.4548 116.166 23.4548C116.976 23.4548 117.618 23.2171 118.094 22.7415C118.582 22.2789 118.826 21.6491 118.826 20.8523V18.4812L119.096 18.7318C118.865 19.3358 118.441 19.8177 117.824 20.1776C117.207 20.5375 116.494 20.7174 115.684 20.7174C114.784 20.7174 114 20.5117 113.332 20.1005C112.664 19.6892 112.143 19.1237 111.771 18.404C111.398 17.6843 111.212 16.8618 111.212 15.9365ZM113.583 15.8786C113.583 16.4184 113.686 16.9004 113.891 17.3245C114.11 17.7357 114.412 18.0635 114.797 18.3077C115.183 18.5518 115.633 18.6739 116.147 18.6739C116.686 18.6739 117.149 18.5583 117.535 18.3269C117.933 18.0827 118.235 17.755 118.441 17.3438C118.659 16.9196 118.768 16.4313 118.768 15.8786C118.768 15.326 118.666 14.8505 118.46 14.4521C118.254 14.0408 117.952 13.7195 117.554 13.4882C117.168 13.2569 116.699 13.1412 116.147 13.1412C115.62 13.1412 115.164 13.2633 114.778 13.5075C114.392 13.7388 114.097 14.0601 113.891 14.4714C113.686 14.8826 113.583 15.3517 113.583 15.8786ZM125.945 20.9102H123.593V11.3869H125.752L126.041 13.0834L125.771 12.852C125.964 12.3894 126.317 11.9845 126.832 11.6375C127.346 11.2777 127.988 11.0978 128.759 11.0978C129.595 11.0978 130.276 11.3162 130.803 11.7532C131.343 12.1902 131.715 12.7685 131.921 13.4882H131.535C131.677 12.7685 132.037 12.1902 132.615 11.7532C133.206 11.3162 133.919 11.0978 134.755 11.0978C135.911 11.0978 136.798 11.4255 137.415 12.0809C138.032 12.7235 138.34 13.591 138.34 14.6834V20.9102H136.008V15.3003C136.008 14.6192 135.834 14.1051 135.487 13.7581C135.153 13.3982 134.703 13.2183 134.138 13.2183C133.778 13.2183 133.444 13.3018 133.135 13.4689C132.84 13.636 132.602 13.8866 132.422 14.2208C132.242 14.5549 132.152 14.9854 132.152 15.5124V20.9102H129.8V15.281C129.8 14.6127 129.633 14.1051 129.299 13.7581C128.965 13.4111 128.522 13.2376 127.969 13.2376C127.596 13.2376 127.256 13.3211 126.947 13.4882C126.639 13.6424 126.395 13.893 126.215 14.24C126.035 14.5742 125.945 14.9983 125.945 15.5124V20.9102ZM143.483 21.1608C142.481 21.1608 141.684 20.8909 141.093 20.3511C140.514 19.7985 140.225 19.0788 140.225 18.192C140.225 17.3181 140.527 16.6241 141.131 16.11C141.748 15.5831 142.622 15.2746 143.753 15.1846L146.606 14.9533V14.7413C146.606 14.3043 146.523 13.9573 146.355 13.7003C146.201 13.4304 145.976 13.2376 145.681 13.1219C145.385 12.9934 145.038 12.9291 144.64 12.9291C143.946 12.9291 143.412 13.0705 143.04 13.3533C142.667 13.6231 142.481 14.0087 142.481 14.5099H140.476C140.476 13.8159 140.649 13.2183 140.996 12.7171C141.356 12.203 141.857 11.8046 142.5 11.5219C143.155 11.2391 143.907 11.0978 144.755 11.0978C145.616 11.0978 146.355 11.252 146.972 11.5604C147.589 11.856 148.065 12.3058 148.399 12.9099C148.733 13.5011 148.9 14.24 148.9 15.1268V20.9102H146.837L146.664 19.5029C146.458 19.9912 146.06 20.3897 145.469 20.6981C144.89 21.0065 144.228 21.1608 143.483 21.1608ZM144.235 19.3872C144.967 19.3872 145.546 19.1816 145.97 18.7703C146.407 18.3591 146.625 17.7872 146.625 17.0546V16.5534L144.64 16.7076C143.907 16.7719 143.387 16.9261 143.078 17.1703C142.77 17.4016 142.616 17.71 142.616 18.0956C142.616 18.5197 142.757 18.841 143.04 19.0595C143.322 19.278 143.721 19.3872 144.235 19.3872Z" fill="white"/>
<defs>
<filter id="filter0_i_2011_6499" x="0" y="0" width="29.8195" height="30.7948" filterUnits="userSpaceOnUse" color-interpolation-filters="sRGB">
<feFlood flood-opacity="0" result="BackgroundImageFix"/>
<feBlend mode="normal" in="SourceGraphic" in2="BackgroundImageFix" result="shape"/>
<feColorMatrix in="SourceAlpha" type="matrix" values="0 0 0 0 0 0 0 0 0 0 0 0 0 0 0 0 0 0 127 0" result="hardAlpha"/>
<feOffset dy="0.974492"/>
<feGaussianBlur stdDeviation="0.487246"/>
<feComposite in2="hardAlpha" operator="arithmetic" k2="-1" k3="1"/>
<feColorMatrix type="matrix" values="0 0 0 0 0.816667 0 0 0 0 0.956 0 0 0 0 1 0 0 0 1 0"/>
<feBlend mode="multiply" in2="shape" result="effect1_innerShadow_2011_6499"/>
</filter>
<filter id="filter1_f_2011_6499" x="-9.99102" y="9.0622" width="49.8016" height="38.9615" filterUnits="userSpaceOnUse" color-interpolation-filters="sRGB">
<feFlood flood-opacity="0" result="BackgroundImageFix"/>
<feBlend mode="normal" in="SourceGraphic" in2="BackgroundImageFix" result="shape"/>
<feGaussianBlur stdDeviation="6.21694" result="effect1_foregroundBlur_2011_6499"/>
</filter>
<filter id="filter2_f_2011_6499" x="-10.1629" y="12.3136" width="50.1453" height="27.6383" filterUnits="userSpaceOnUse" color-interpolation-filters="sRGB">
<feFlood flood-opacity="0" result="BackgroundImageFix"/>
<feBlend mode="normal" in="SourceGraphic" in2="BackgroundImageFix" result="shape"/>
<feGaussianBlur stdDeviation="5.08146" result="effect1_foregroundBlur_2011_6499"/>
</filter>
<clipPath id="bgblur_1_2011_6499_clip_path" transform="translate(-2.85935 -2.11423)"><path d="M11.9131 5.90332C13.834 5.1049 15.96 4.94222 17.9805 5.4375C19.7983 5.88317 21.446 6.84113 22.7295 8.19141C22.9336 8.4066 22.9049 8.75051 22.6719 8.94531L20.0166 11.1641C19.7861 11.3566 19.4375 11.3269 19.209 11.1133C18.5606 10.5073 17.7653 10.0744 16.8965 9.86133C15.8195 9.59728 14.6861 9.68482 13.6621 10.1104C12.6381 10.536 11.7767 11.2778 11.2041 12.2275C10.6315 13.1773 10.3769 14.2853 10.4785 15.3896C10.5802 16.4939 11.0322 17.537 11.7686 18.3662C12.5049 19.1955 13.4877 19.7675 14.5723 19.999C15.6567 20.2305 16.7872 20.1096 17.7979 19.6533C18.6132 19.2853 19.3159 18.7141 19.8428 18C20.0284 17.7483 20.3662 17.6555 20.6279 17.8027L23.6436 19.499C23.9084 19.6481 23.9987 19.9816 23.8369 20.2305C22.8215 21.7922 21.3776 23.0347 19.6719 23.8047C17.7758 24.6606 15.6556 24.8884 13.6211 24.4541C11.5865 24.0198 9.74365 22.9462 8.3623 21.3906C6.98104 19.835 6.13308 17.8782 5.94238 15.8066C5.75177 13.7351 6.22866 11.6565 7.30273 9.875C8.37686 8.09355 9.99218 6.70174 11.9131 5.90332Z"/>
</clipPath><filter id="filter4_f_2011_6499" x="-4.31084" y="16.3142" width="38.4411" height="17.7936" filterUnits="userSpaceOnUse" color-interpolation-filters="sRGB">
<feFlood flood-opacity="0" result="BackgroundImageFix"/>
<feBlend mode="normal" in="SourceGraphic" in2="BackgroundImageFix" result="shape"/>
<feGaussianBlur stdDeviation="2.15542" result="effect1_foregroundBlur_2011_6499"/>
</filter>
<linearGradient id="paint0_linear_2011_6499" x1="14.9097" y1="0" x2="14.9097" y2="29.8195" gradientUnits="userSpaceOnUse">
<stop stop-color="#617489"/>
<stop offset="0.0989583" stop-color="#3E5670"/>
<stop offset="1" stop-color="#0F1011"/>
</linearGradient>
<linearGradient id="paint1_linear_2011_6499" x1="6.93022" y1="23.6402" x2="24.3854" y2="6.18509" gradientUnits="userSpaceOnUse">
<stop stop-color="white" stop-opacity="0.6"/>
<stop offset="1" stop-color="white"/>
</linearGradient>
<linearGradient id="paint2_linear_2011_6499" x1="7.1027" y1="6.62177" x2="23.5864" y2="22.9066" gradientUnits="userSpaceOnUse">
<stop stop-color="white"/>
<stop offset="1" stop-color="white" stop-opacity="0"/>
</linearGradient>
<linearGradient id="paint3_linear_2011_6499" x1="3.72508" y1="22.4766" x2="3.72508" y2="29.7899" gradientUnits="userSpaceOnUse">
<stop stop-color="#FF7262"/>
<stop offset="1" stop-color="#FF1A00"/>
</linearGradient>
<linearGradient id="paint4_linear_2011_6499" x1="11.1841" y1="22.4766" x2="11.1841" y2="29.7899" gradientUnits="userSpaceOnUse">
<stop stop-color="#A259FF"/>
<stop offset="1" stop-color="#7000FF"/>
</linearGradient>
<linearGradient id="paint5_linear_2011_6499" x1="18.6347" y1="22.4766" x2="18.6347" y2="29.7899" gradientUnits="userSpaceOnUse">
<stop stop-color="#00C4FF"/>
<stop offset="1" stop-color="#0096D2"/>
</linearGradient>
<linearGradient id="paint6_linear_2011_6499" x1="26.0855" y1="22.4766" x2="26.0855" y2="29.7899" gradientUnits="userSpaceOnUse">
<stop stop-color="#00FF9D"/>
<stop offset="1" stop-color="#1E9F61"/>
</linearGradient>
<clipPath id="clip0_2011_6499">
<rect width="29.8195" height="29.8195" rx="6.29933" fill="white"/>
</clipPath>
</defs>
</svg>
